<?xml version="1.0" standalone="no"?>
<!DOCTYPE svg PUBLIC "-//W3C//DTD SVG 20010904//EN"
 "http://www.w3.org/TR/2001/REC-SVG-20010904/DTD/svg10.dtd">
<svg version="1.0" xmlns="http://www.w3.org/2000/svg"
 width="621.000000pt" height="165.000000pt" viewBox="0 0 621.000000 165.000000"
 preserveAspectRatio="xMidYMid meet">

<g transform="translate(0.000000,165.000000) scale(0.100000,-0.100000)"
fill="#000000" stroke="none">
<path d="M342 1578 l-82 -61 2 -714 3 -715 86 -39 86 -39 491 223 492 222 -3
304 -2 305 -369 167 c-302 137 -373 165 -386 156 -9 -7 -42 -32 -74 -57 l-58
-44 28 -13 c16 -7 178 -81 359 -163 l330 -149 0 -197 0 -198 -395 -178 c-217
-98 -398 -178 -402 -178 -5 0 -8 322 -8 715 0 393 -3 715 -7 715 -5 -1 -45
-28 -91 -62z"/>
<path d="M83 1417 l-83 -61 0 -576 0 -577 82 -36 83 -35 3 340 c1 186 1 490 0
673 l-3 333 -82 -61z"/>
<path d="M1872 1138 l3 -223 272 0 c259 0 273 1 300 21 59 43 83 144 44 183
-18 18 -18 19 1 36 17 14 20 26 16 67 -6 58 -31 96 -79 120 -30 16 -66 18
-297 18 l-262 0 2 -222z m508 77 c0 -6 -72 -11 -190 -13 -166 -2 -190 0 -190
13 0 13 24 15 190 13 118 -2 190 -7 190 -13z m0 -160 c0 -13 -28 -15 -190 -15
-162 0 -190 2 -190 15 0 13 28 15 190 15 162 0 190 -2 190 -15z"/>
<path d="M2610 1135 l0 -225 320 0 320 0 0 65 0 65 -255 0 -255 0 0 160 0 160
-65 0 -65 0 0 -225z"/>
<path d="M3352 1182 c3 -193 8 -212 65 -249 24 -16 54 -18 253 -18 199 0 229
2 253 18 57 37 62 56 65 249 l4 178 -66 0 -66 0 0 -150 c0 -137 -2 -150 -19
-160 -11 -6 -87 -10 -175 -10 -127 0 -157 3 -170 16 -13 13 -16 42 -16 160 l0
144 -66 0 -66 0 4 -178z"/>
<path d="M4090 1135 l0 -225 320 0 320 0 0 65 0 65 -255 0 c-220 0 -255 2
-255 15 0 13 35 15 255 15 l255 0 0 65 0 65 -255 0 c-220 0 -255 2 -255 15 0
13 35 15 255 15 l255 0 0 65 0 65 -320 0 -320 0 0 -225z"/>
<path d="M530 810 l0 -419 32 -17 c39 -20 26 -25 323 110 l230 105 0 161 0
160 -163 74 -163 74 3 -85 3 -85 85 -39 85 -38 3 -49 3 -49 -135 -61 c-74 -34
-138 -62 -141 -62 -3 0 -5 128 -5 283 l0 284 -27 13 c-16 7 -52 23 -80 36
l-53 24 0 -420z"/>
<path d="M2617 743 c-4 -3 -7 -105 -7 -225 l0 -218 320 0 320 0 0 60 0 60
-255 0 -255 0 0 165 0 165 -58 0 c-32 0 -62 -3 -65 -7z"/>
<path d="M1870 519 l0 -220 278 3 c225 2 281 6 300 18 55 35 82 153 43 186
-18 16 -18 17 0 35 40 40 15 144 -43 179 -31 19 -50 20 -305 20 l-273 0 0
-221z m510 87 c0 -23 -24 -26 -206 -26 -167 0 -174 1 -174 20 0 19 7 20 190
20 156 0 190 -3 190 -14z m5 -155 c14 -23 -41 -31 -209 -31 -169 0 -176 1
-176 20 0 19 7 20 189 20 109 0 192 -4 196 -9z"/>
<path d="M3414 721 c-51 -31 -67 -88 -62 -220 4 -123 16 -151 79 -183 51 -27
427 -27 478 0 64 32 76 60 79 185 4 135 -8 181 -57 214 -33 22 -41 23 -260 23
-205 0 -229 -2 -257 -19z m431 -117 c12 -13 15 -32 13 -87 -3 -65 -5 -73 -28
-85 -35 -18 -310 -13 -333 7 -23 19 -24 143 -1 165 23 24 325 23 349 0z"/>
<path d="M4152 720 c-49 -30 -62 -72 -62 -197 0 -137 18 -182 79 -206 63 -25
431 -25 480 1 48 24 70 59 78 120 l6 52 -66 0 c-60 0 -66 -2 -69 -22 -5 -38
-42 -48 -188 -48 -180 0 -184 3 -188 100 -2 62 0 77 14 87 13 9 63 13 174 13
139 0 159 -2 173 -18 10 -10 17 -24 17 -30 0 -8 22 -12 66 -12 l67 0 -6 45
c-4 25 -14 59 -22 75 -29 55 -51 60 -297 60 -206 0 -226 -2 -256 -20z"/>
<path d="M4830 520 l0 -220 60 0 60 0 0 74 c0 82 4 88 68 106 l43 11 107 -95
107 -95 95 -1 95 0 -27 23 c-14 12 -75 65 -133 117 l-107 95 136 43 136 43 0
60 c0 34 -4 59 -10 59 -6 0 -118 -34 -249 -75 -131 -41 -243 -75 -249 -75 -8
0 -12 24 -12 75 l0 75 -60 0 -60 0 0 -220z"/>
<path d="M5640 727 c-44 -22 -70 -73 -70 -138 0 -51 4 -63 29 -91 l29 -33 219
-3 c209 -3 258 -10 223 -32 -8 -5 -123 -10 -257 -10 l-243 0 0 -60 0 -60 260
0 c290 0 315 4 350 62 14 24 20 50 20 96 0 57 -3 67 -29 93 l-29 29 -207 0
c-198 0 -254 7 -240 31 4 5 109 9 256 9 l249 0 0 60 0 60 -267 0 c-194 0 -275
-4 -293 -13z"/>
</g>
</svg>
